<svg xmlns="http://www.w3.org/2000/svg" viewBox="0 0 1000 1000">
    <defs>
        <style>.grey{fill:#ccc;}.pink{fill:#ea80fc;}.white{fill:#fff;}</style>
    </defs>
    <circle class="grey" cx="500" cy="500" r="500"/>
    <path d="M231.93,573.09q-24.48-21-26.21-58.51l-.35-13.89.35-14.23q1.38-37.5,26-58.69T296,406.59q30.21,0,50.7,10.77t30.55,25.52q10.08,14.76,10.77,26.91a7.45,7.45,0,0,1-2.43,6.42,9.32,9.32,0,0,1-6.6,2.61H332.46a9,9,0,0,1-5.9-1.74,15.26,15.26,0,0,1-3.82-5.55q-3.83-9.72-9.9-14.24t-15.45-4.51q-26.75,0-27.78,35.41l-.35,13.2.35,11.46q.34,18.06,7.29,26.56t20.49,8.51q10.07,0,15.8-4.34t9.55-14.41a15.4,15.4,0,0,1,3.82-5.56,9,9,0,0,1,5.9-1.73H379a9.25,9.25,0,0,1,6.25,2.43,7.57,7.57,0,0,1,2.78,5.9q0,10.77-9.55,25.87t-30.38,26.56Q327.26,594.1,296,594.1,256.42,594.1,231.93,573.09Z"
          transform="translate(-1)"/>
    <path d="M715.83,594.1q-31.26,0-52.09-11.46t-30.38-26.56q-9.55-15.11-9.55-25.87a7.56,7.56,0,0,1,2.77-5.9,9.27,9.27,0,0,1,6.25-2.43h46.54a9,9,0,0,1,5.9,1.73,15.52,15.52,0,0,1,3.82,5.56q3.82,10.08,9.55,14.41t15.8,4.34q13.54,0,20.48-8.51t7.3-26.56l.34-11.46-.34-13.2q-1.05-35.42-27.78-35.41-9.37,0-15.45,4.51t-9.9,14.24a15.38,15.38,0,0,1-3.82,5.55,9,9,0,0,1-5.9,1.74H632.83a9.3,9.3,0,0,1-6.59-2.61,7.45,7.45,0,0,1-2.43-6.42q.69-12.15,10.76-26.91t30.56-25.52q20.49-10.77,50.7-10.77,39.58,0,64.24,21.18t26,58.69l.35,14.23-.35,13.89q-1.74,37.51-26.22,58.51T715.83,594.1Z"
          transform="translate(-1)"/>
    <path class="pink"
          d="M164.84,699.71q-19.43-15.09-27.19-43.64t-7.77-73.79q0-23.29-5.94-36.32t-19.19-21.7l-3.2-1.83q-6.39-3.66-8.9-7.54a17.7,17.7,0,0,1-2.52-9.82v-8.23A17.73,17.73,0,0,1,92.65,487q2.5-3.88,8.9-7.54l3.66-2.29q13.25-8.67,19-21.47t5.71-36.09q0-45.24,7.54-73.79t27-43.41q19.41-14.83,54.6-14.85h2.28a9.43,9.43,0,0,1,10.05,10.05v15.54a9.87,9.87,0,0,1-2.74,7.31,9.27,9.27,0,0,1-6.85,2.74h-2.28q-21.94.46-32.67,11.19t-14.17,32q-3.42,21.24-3.42,61.91,0,53.44-33.81,72.64,33.8,19.2,33.81,72.65,0,40.67,3.42,62.14t14.17,32q10.72,10.51,32.67,11h2.28a11.06,11.06,0,0,1,6.85,3.2,9.27,9.27,0,0,1,2.74,6.85v16a9.43,9.43,0,0,1-10.05,10H219Q184.26,714.78,164.84,699.71Z"
          transform="translate(-1)"/>
    <path class="pink"
          d="M840.36,302.66q19.65,15.07,27.19,43.63t7.54,73.79q0,23.31,6.16,36.33a52.85,52.85,0,0,0,19.42,21.7l3.2,1.83q6.39,3.66,8.91,7.53a17,17,0,0,1,2.51,9.37v8.68a16.92,16.92,0,0,1-2.51,9.37q-2.52,3.89-8.91,8l-3.65,1.83Q887,533.86,881,546.64t-5.94,36.1q0,45.22-7.54,73.56t-27,43.41q-19.43,15.07-54.14,15.07h-2.74a10.08,10.08,0,0,1-7.09-2.74,9.48,9.48,0,0,1-3-7.31v-16a8.92,8.92,0,0,1,3-6.85,12.11,12.11,0,0,1,7.09-3.2H786q21.93-.47,32.67-11t14.16-32q3.43-21.47,3.43-62.14,0-53,33.81-72.19-33.81-19.19-33.81-72.65,0-40.2-3.43-61.91t-14.16-32.21q-10.74-10.5-32.67-11l-2.28-.46a10.08,10.08,0,0,1-7.09-2.74,9.47,9.47,0,0,1-3-7.31V297.63a9.48,9.48,0,0,1,3-7.31,10.12,10.12,0,0,1,7.09-2.74H786Q820.71,287.58,840.36,302.66Z"
          transform="translate(-1)"/>
    <path class="white"
          d="M385.18,648.62a7,7,0,0,1-2.26-5,9.15,9.15,0,0,1,.7-3.47L501,357.46q3.82-8.68,12.85-8.68h33A6.81,6.81,0,0,1,552,351a7.26,7.26,0,0,1,2.08,5,9.33,9.33,0,0,1-.69,3.47L435.35,642.2q-3.47,8.67-12.84,8.68h-32.3A7,7,0,0,1,385.18,648.62Z"
          transform="translate(-1)"/>
    <path class="white"
          d="M458.79,648.62a7,7,0,0,1-2.26-5,9.15,9.15,0,0,1,.7-3.47L574.6,357.46q3.81-8.68,12.84-8.68h33a6.8,6.8,0,0,1,5.21,2.25,7.26,7.26,0,0,1,2.08,5,9.33,9.33,0,0,1-.69,3.47L509,642.2q-3.48,8.67-12.85,8.68H463.83A7,7,0,0,1,458.79,648.62Z"
          transform="translate(-1)"/>
</svg>