<?xml version="1.0" standalone="no"?>
<!DOCTYPE svg PUBLIC "-//W3C//DTD SVG 20010904//EN"
 "http://www.w3.org/TR/2001/REC-SVG-20010904/DTD/svg10.dtd">
<svg version="1.0" xmlns="http://www.w3.org/2000/svg"
 width="1000.000000pt" height="1000.000000pt" viewBox="0 0 1000.000000 1000.000000"
 preserveAspectRatio="xMidYMid meet">
<metadata>
Created by potrace 1.11, written by Peter Selinger 2001-2013
</metadata>
<g transform="translate(0.000000,1000.000000) scale(0.100000,-0.100000)"
fill="#000000" stroke="none">
<path d="M4625 9989 c-2065 -155 -3825 -1574 -4419 -3562 -219 -731 -265
-1523 -135 -2282 223 -1293 956 -2455 2032 -3222 1125 -802 2531 -1099 3897
-823 1239 250 2339 966 3077 2003 770 1080 1078 2437 852 3752 -223 1293 -956
2455 -2032 3222 -744 531 -1619 845 -2542 913 -161 11 -568 11 -730 -1z m885
-3499 c11 -11 20 -33 20 -50 0 -27 -1169 -2847 -1202 -2899 -28 -46 -55 -51
-265 -51 -199 0 -200 0 -222 24 -18 19 -22 33 -19 58 4 27 1126 2742 1184
2864 33 69 53 74 282 74 189 0 203 -1 222 -20z m740 0 c11 -11 20 -33 20 -50
0 -27 -1169 -2847 -1202 -2899 -28 -46 -55 -51 -265 -51 -199 0 -200 0 -222
24 -18 19 -22 33 -19 58 4 27 1126 2742 1184 2864 33 69 53 74 282 74 189 0
203 -1 222 -20z"/>
</g>
</svg>
